# This file uses centimeters as units for non-parametric coordinates.

mtllib Egg.mtl
g default
v -13.204746 9.400084 13.204746
v 13.204746 9.400084 13.204746
v -8.712639 39.200233 8.712637
v 8.712639 39.200233 8.712637
v -8.712639 39.200233 -8.712639
v 8.712639 39.200233 -8.712639
v -13.204746 9.400084 -13.204746
v 13.204746 9.400084 -13.204746
v -9.530597 42.066124 -0.000000
v 14.592639 25.502747 -14.592639
v 0.000000 5.926329 -16.678501
v -14.592643 25.502747 -14.592639
v 16.678501 5.926329 -0.000000
v -16.678501 5.926329 0.000001
v 0.000000 5.926329 16.678501
v 14.592639 25.502747 14.592639
v 0.000000 42.066124 9.530596
v -14.592639 25.502747 14.592639
v 9.530596 42.066124 0.000000
v 0.000000 42.066124 -9.530596
v 0.000000 26.946360 18.510406
v 0.000000 45.569126 -0.000000
v 0.000000 26.946362 -18.510403
v 0.000000 -0.173370 0.000000
v 18.510403 26.946360 0.000000
v -18.510403 26.946362 -0.000000
v -8.072700 15.600895 18.893555
v 8.072700 15.600899 18.893555
v 6.057211 35.249184 14.176455
v -6.057213 35.249184 14.176455
v -4.765024 43.882149 4.765023
v 4.765023 43.882149 4.765023
v 4.765023 43.882149 -4.765024
v -4.765024 43.882149 -4.765023
v -6.057213 35.249180 -14.176455
v 6.057212 35.249184 -14.176455
v 8.072700 15.600895 -18.893555
v -8.072702 15.600899 -18.893555
v -8.463037 2.797709 -8.463039
v 8.463037 2.797709 -8.463037
v 8.463039 2.797709 8.463037
v -8.463039 2.797709 8.463037
v 18.893555 15.600899 8.072700
v 18.893555 15.600899 -8.072700
v 14.176455 35.249184 -6.057212
v 14.176455 35.249184 6.057211
v -18.893555 15.600899 -8.072700
v -18.893555 15.600899 8.072700
v -14.176455 35.249184 6.057211
v -14.176455 35.249184 -6.057211
v -0.000000 15.203535 20.133429
v 7.668485 26.235531 17.918432
v 0.000001 36.433105 14.101422
v -7.668485 26.235531 17.918432
v -0.000000 44.742741 4.885795
v 4.885795 44.742741 0.000000
v 0.000000 44.742741 -4.885795
v -4.885795 44.742741 -0.000000
v -0.000000 36.433105 -14.101422
v 7.668485 26.235531 -17.918432
v 0.000001 15.203535 -20.133425
v -7.668485 26.235531 -17.918432
v -0.000000 1.357182 -9.093263
v 9.093263 1.357182 -0.000000
v 0.000001 1.357182 9.093263
v -9.093263 1.357189 0.000001
v 20.133429 15.203535 0.000000
v 17.918432 26.235531 -7.668485
v 14.101422 36.433105 -0.000001
v 17.918432 26.235531 7.668485
v -20.133429 15.203535 -0.000000
v -17.918432 26.235531 7.668485
v -14.101422 36.433105 0.000001
v -17.918432 26.235531 -7.668485
v -7.832820 7.074236 15.530589
v 7.832820 7.074236 15.530589
v 15.110549 15.610559 15.110549
v 11.631308 34.288803 11.631308
v 4.819352 41.075134 9.555610
v -4.819352 41.075134 9.555610
v -11.631308 34.288803 11.631308
v -15.110549 15.610559 15.110549
v 9.555611 41.075134 4.819352
v 9.555610 41.075134 -4.819351
v 4.819352 41.075134 -9.555610
v -4.819352 41.075134 -9.555610
v -9.555610 41.075134 -4.819352
v -9.555610 41.075134 4.819352
v 11.631308 34.288803 -11.631308
v 15.110549 15.610559 -15.110549
v 7.832820 7.074236 -15.530589
v -7.832820 7.074236 -15.530589
v -15.110549 15.610559 -15.110549
v -11.631308 34.288803 -11.631308
v 15.530591 7.074236 -7.832820
v 15.530589 7.074236 7.832819
v -15.530589 7.074236 7.832820
v -15.530589 7.074236 -7.832820
vt 0.375000 0.000000
vt 0.375000 1.000000
vt 0.625000 0.000000
vt 0.625000 1.000000
vt 0.375000 0.250000
vt 0.625000 0.250000
vt 0.375000 0.500000
vt 0.125000 0.250000
vt 0.625000 0.500000
vt 0.875000 0.250000
vt 0.375000 0.750000
vt 0.125000 0.000000
vt 0.625000 0.750000
vt 0.875000 0.000000
vt 0.500000 0.125000
vt 0.500000 0.375000
vt 0.500000 0.625000
vt 0.500000 0.875000
vt 0.750000 0.125000
vt 0.250000 0.125000
vt 0.500000 0.000000
vt 0.500000 1.000000
vt 0.625000 0.125000
vt 0.500000 0.250000
vt 0.375000 0.125000
vt 0.625000 0.375000
vt 0.750000 0.250000
vt 0.500000 0.500000
vt 0.375000 0.375000
vt 0.250000 0.250000
vt 0.625000 0.625000
vt 0.875000 0.125000
vt 0.500000 0.750000
vt 0.375000 0.625000
vt 0.125000 0.125000
vt 0.625000 0.875000
vt 0.750000 0.000000
vt 0.375000 0.875000
vt 0.250000 0.000000
vt 0.437500 0.062500
vt 0.562500 0.062500
vt 0.562500 0.187500
vt 0.437500 0.187500
vt 0.437500 0.312500
vt 0.562500 0.312500
vt 0.562500 0.437500
vt 0.437500 0.437500
vt 0.437500 0.562500
vt 0.562500 0.562500
vt 0.562500 0.687500
vt 0.437500 0.687500
vt 0.437500 0.812500
vt 0.562500 0.812500
vt 0.562500 0.937500
vt 0.437500 0.937500
vt 0.687500 0.062500
vt 0.812500 0.062500
vt 0.812500 0.187500
vt 0.687500 0.187500
vt 0.187500 0.062500
vt 0.312500 0.062500
vt 0.312500 0.187500
vt 0.187500 0.187500
vt 0.500000 0.062500
vt 0.562500 0.125000
vt 0.500000 0.187500
vt 0.437500 0.125000
vt 0.500000 0.312500
vt 0.562500 0.375000
vt 0.500000 0.437500
vt 0.437500 0.375000
vt 0.500000 0.562500
vt 0.562500 0.625000
vt 0.500000 0.687500
vt 0.437500 0.625000
vt 0.500000 0.812500
vt 0.562500 0.875000
vt 0.500000 0.937500
vt 0.437500 0.875000
vt 0.750000 0.062500
vt 0.812500 0.125000
vt 0.750000 0.187500
vt 0.687500 0.125000
vt 0.250000 0.062500
vt 0.312500 0.125000
vt 0.250000 0.187500
vt 0.187500 0.125000
vt 0.437500 0.000000
vt 0.437500 1.000000
vt 0.562500 0.000000
vt 0.562500 1.000000
vt 0.625000 0.062500
vt 0.625000 0.187500
vt 0.562500 0.250000
vt 0.437500 0.250000
vt 0.375000 0.187500
vt 0.375000 0.062500
vt 0.625000 0.312500
vt 0.687500 0.250000
vt 0.625000 0.437500
vt 0.812500 0.250000
vt 0.562500 0.500000
vt 0.437500 0.500000
vt 0.375000 0.437500
vt 0.187500 0.250000
vt 0.375000 0.312500
vt 0.312500 0.250000
vt 0.625000 0.562500
vt 0.875000 0.187500
vt 0.625000 0.687500
vt 0.875000 0.062500
vt 0.562500 0.750000
vt 0.437500 0.750000
vt 0.375000 0.687500
vt 0.125000 0.062500
vt 0.375000 0.562500
vt 0.125000 0.187500
vt 0.625000 0.812500
vt 0.812500 0.000000
vt 0.625000 0.937500
vt 0.687500 0.000000
vt 0.375000 0.937500
vt 0.312500 0.000000
vt 0.375000 0.812500
vt 0.187500 0.000000
vn -0.616348 -0.490133 0.616348
vn -0.307228 -0.599495 0.739065
vn -0.293070 -0.096164 0.951243
vn -0.704005 -0.093557 0.704005
vn 0.000000 -0.631998 0.774970
vn 0.000000 -0.110447 0.993882
vn 0.000000 0.254203 0.967151
vn -0.278345 0.241717 0.929568
vn -0.688462 0.228122 0.688462
vn 0.307228 -0.599495 0.739065
vn 0.293070 -0.096164 0.951243
vn 0.616348 -0.490133 0.616348
vn 0.704005 -0.093557 0.704005
vn 0.688462 0.228122 0.688462
vn 0.278346 0.241717 0.929568
vn 0.253722 0.488961 0.834591
vn 0.000000 0.507138 0.861865
vn 0.619167 0.482974 0.619167
vn 0.528637 0.664143 0.528637
vn 0.268151 0.718076 0.642231
vn 0.000000 0.747414 0.664359
vn -0.253722 0.488961 0.834591
vn -0.619167 0.482974 0.619167
vn -0.268151 0.718076 0.642231
vn -0.528637 0.664143 0.528637
vn -0.326381 0.887102 0.326382
vn -0.642231 0.718076 0.268151
vn -0.000000 0.937601 0.347713
vn -0.000000 1.000000 0.000000
vn -0.347712 0.937601 -0.000000
vn -0.664359 0.747414 -0.000000
vn 0.326381 0.887102 0.326382
vn 0.642231 0.718076 0.268151
vn 0.664359 0.747414 -0.000000
vn 0.347712 0.937601 0.000000
vn 0.326381 0.887102 -0.326382
vn 0.000000 0.937601 -0.347712
vn 0.642231 0.718076 -0.268151
vn 0.528637 0.664143 -0.528637
vn 0.268151 0.718077 -0.642231
vn -0.000000 0.747414 -0.664359
vn -0.326381 0.887102 -0.326382
vn -0.642231 0.718076 -0.268151
vn -0.268151 0.718076 -0.642232
vn -0.528637 0.664143 -0.528637
vn -0.253722 0.488961 -0.834591
vn -0.619167 0.482974 -0.619167
vn -0.000000 0.507138 -0.861865
vn 0.000000 0.254203 -0.967151
vn -0.278345 0.241717 -0.929568
vn -0.688462 0.228122 -0.688462
vn 0.253722 0.488961 -0.834591
vn 0.619167 0.482974 -0.619167
vn 0.688462 0.228122 -0.688462
vn 0.278345 0.241717 -0.929568
vn 0.293069 -0.096164 -0.951243
vn -0.000000 -0.110447 -0.993882
vn 0.704005 -0.093557 -0.704005
vn 0.616348 -0.490133 -0.616348
vn 0.307228 -0.599495 -0.739065
vn -0.000000 -0.631998 -0.774970
vn -0.293069 -0.096164 -0.951243
vn -0.704005 -0.093557 -0.704005
vn -0.307228 -0.599495 -0.739065
vn -0.616348 -0.490133 -0.616348
vn -0.329322 -0.884926 -0.329322
vn -0.739065 -0.599495 -0.307228
vn -0.000000 -0.938544 -0.345160
vn -0.000000 -1.000000 -0.000000
vn -0.345160 -0.938544 -0.000000
vn -0.774970 -0.631998 -0.000000
vn 0.329322 -0.884926 -0.329322
vn 0.739065 -0.599495 -0.307229
vn 0.774970 -0.631998 0.000000
vn 0.345160 -0.938544 -0.000000
vn 0.329322 -0.884926 0.329322
vn -0.000000 -0.938544 0.345160
vn 0.739065 -0.599495 0.307228
vn -0.329322 -0.884926 0.329322
vn -0.739065 -0.599495 0.307228
vn 0.951243 -0.096164 0.293070
vn 0.993882 -0.110446 0.000000
vn 0.967151 0.254203 -0.000000
vn 0.929568 0.241717 0.278345
vn 0.951243 -0.096164 -0.293070
vn 0.929568 0.241717 -0.278345
vn 0.834591 0.488961 -0.253722
vn 0.861865 0.507138 -0.000000
vn 0.834591 0.488961 0.253722
vn -0.951243 -0.096164 -0.293070
vn -0.993882 -0.110446 0.000000
vn -0.967151 0.254203 0.000000
vn -0.929568 0.241717 -0.278345
vn -0.951243 -0.096164 0.293070
vn -0.929568 0.241717 0.278345
vn -0.834591 0.488961 0.253722
vn -0.861865 0.507138 0.000000
vn -0.834591 0.488961 -0.253722
s 1
g pCube1
usemtl initialShadingGroup
f 1/1/1 75/88/2 27/40/3 82/97/4
f 75/88/2 15/21/5 51/64/6 27/40/3
f 27/40/3 51/64/6 21/15/7 54/67/8
f 82/97/4 27/40/3 54/67/8 18/25/9
f 15/21/5 76/90/10 28/41/11 51/64/6
f 76/90/10 2/3/12 77/92/13 28/41/11
f 28/41/11 77/92/13 16/23/14 52/65/15
f 51/64/6 28/41/11 52/65/15 21/15/7
f 21/15/7 52/65/15 29/42/16 53/66/17
f 52/65/15 16/23/14 78/93/18 29/42/16
f 29/42/16 78/93/18 4/6/19 79/94/20
f 53/66/17 29/42/16 79/94/20 17/24/21
f 18/25/9 54/67/8 30/43/22 81/96/23
f 54/67/8 21/15/7 53/66/17 30/43/22
f 30/43/22 53/66/17 17/24/21 80/95/24
f 81/96/23 30/43/22 80/95/24 3/5/25
f 3/5/25 80/95/24 31/44/26 88/106/27
f 80/95/24 17/24/21 55/68/28 31/44/26
f 31/44/26 55/68/28 22/16/29 58/71/30
f 88/106/27 31/44/26 58/71/30 9/29/31
f 17/24/21 79/94/20 32/45/32 55/68/28
f 79/94/20 4/6/19 83/98/33 32/45/32
f 32/45/32 83/98/33 19/26/34 56/69/35
f 55/68/28 32/45/32 56/69/35 22/16/29
f 22/16/29 56/69/35 33/46/36 57/70/37
f 56/69/35 19/26/34 84/100/38 33/46/36
f 33/46/36 84/100/38 6/9/39 85/102/40
f 57/70/37 33/46/36 85/102/40 20/28/41
f 9/29/31 58/71/30 34/47/42 87/104/43
f 58/71/30 22/16/29 57/70/37 34/47/42
f 34/47/42 57/70/37 20/28/41 86/103/44
f 87/104/43 34/47/42 86/103/44 5/7/45
f 5/7/45 86/103/44 35/48/46 94/116/47
f 86/103/44 20/28/41 59/72/48 35/48/46
f 35/48/46 59/72/48 23/17/49 62/75/50
f 94/116/47 35/48/46 62/75/50 12/34/51
f 20/28/41 85/102/40 36/49/52 59/72/48
f 85/102/40 6/9/39 89/108/53 36/49/52
f 36/49/52 89/108/53 10/31/54 60/73/55
f 59/72/48 36/49/52 60/73/55 23/17/49
f 23/17/49 60/73/55 37/50/56 61/74/57
f 60/73/55 10/31/54 90/110/58 37/50/56
f 37/50/56 90/110/58 8/13/59 91/112/60
f 61/74/57 37/50/56 91/112/60 11/33/61
f 12/34/51 62/75/50 38/51/62 93/114/63
f 62/75/50 23/17/49 61/74/57 38/51/62
f 38/51/62 61/74/57 11/33/61 92/113/64
f 93/114/63 38/51/62 92/113/64 7/11/65
f 7/11/65 92/113/64 39/52/66 98/124/67
f 92/113/64 11/33/61 63/76/68 39/52/66
f 39/52/66 63/76/68 24/18/69 66/79/70
f 98/124/67 39/52/66 66/79/70 14/38/71
f 11/33/61 91/112/60 40/53/72 63/76/68
f 91/112/60 8/13/59 95/118/73 40/53/72
f 40/53/72 95/118/73 13/36/74 64/77/75
f 63/76/68 40/53/72 64/77/75 24/18/69
f 24/18/69 64/77/75 41/54/76 65/78/77
f 64/77/75 13/36/74 96/120/78 41/54/76
f 41/54/76 96/120/78 2/4/12 76/91/10
f 65/78/77 41/54/76 76/91/10 15/22/5
f 14/38/71 66/79/70 42/55/79 97/122/80
f 66/79/70 24/18/69 65/78/77 42/55/79
f 42/55/79 65/78/77 15/22/5 75/89/2
f 97/122/80 42/55/79 75/89/2 1/2/1
f 2/3/12 96/121/78 43/56/81 77/92/13
f 96/121/78 13/37/74 67/80/82 43/56/81
f 43/56/81 67/80/82 25/19/83 70/83/84
f 77/92/13 43/56/81 70/83/84 16/23/14
f 13/37/74 95/119/73 44/57/85 67/80/82
f 95/119/73 8/14/59 90/111/58 44/57/85
f 44/57/85 90/111/58 10/32/54 68/81/86
f 67/80/82 44/57/85 68/81/86 25/19/83
f 25/19/83 68/81/86 45/58/87 69/82/88
f 68/81/86 10/32/54 89/109/53 45/58/87
f 45/58/87 89/109/53 6/10/39 84/101/38
f 69/82/88 45/58/87 84/101/38 19/27/34
f 16/23/14 70/83/84 46/59/89 78/93/18
f 70/83/84 25/19/83 69/82/88 46/59/89
f 46/59/89 69/82/88 19/27/34 83/99/33
f 78/93/18 46/59/89 83/99/33 4/6/19
f 7/12/65 98/125/67 47/60/90 93/115/63
f 98/125/67 14/39/71 71/84/91 47/60/90
f 47/60/90 71/84/91 26/20/92 74/87/93
f 93/115/63 47/60/90 74/87/93 12/35/51
f 14/39/71 97/123/80 48/61/94 71/84/91
f 97/123/80 1/1/1 82/97/4 48/61/94
f 48/61/94 82/97/4 18/25/9 72/85/95
f 71/84/91 48/61/94 72/85/95 26/20/92
f 26/20/92 72/85/95 49/62/96 73/86/97
f 72/85/95 18/25/9 81/96/23 49/62/96
f 49/62/96 81/96/23 3/5/25 88/107/27
f 73/86/97 49/62/96 88/107/27 9/30/31
f 12/35/51 74/87/93 50/63/98 94/117/47
f 74/87/93 26/20/92 73/86/97 50/63/98
f 50/63/98 73/86/97 9/30/31 87/105/43
f 94/117/47 50/63/98 87/105/43 5/8/45
